<?xml version="1.0" encoding="iso-8859-1"?>
<!-- Generator: Adobe Illustrator 19.0.0, SVG Export Plug-In . SVG Version: 6.00 Build 0)  -->
<svg version="1.1" id="Capa_1" xmlns="http://www.w3.org/2000/svg" xmlns:xlink="http://www.w3.org/1999/xlink" x="0px" y="0px"
	 viewBox="0 0 506.164 506.164" style="enable-background:new 0 0 506.164 506.164;" xml:space="preserve">
<g>
	<g>
		<g>
			<rect x="430.494" y="385.198" transform="matrix(0.7071 0.7071 -0.7071 0.7071 414.465 -198.2109)" width="32" height="32"/>
			<path d="M492.096,424.208l-0.368-0.368l-22.192,22.992c6.252,6.245,6.258,16.376,0.013,22.627
				c-0.004,0.004-0.008,0.008-0.013,0.013c-6.346,6.02-16.294,6.02-22.64,0l-135.76-135.776l22.672-22.656l22.128,22.272
				l22.624-22.624l-78-77.952l-65.6-87.504L186.544,0L174.08,0.96C67.408,9.168,9.168,67.408,0.96,174.08L0,186.544l145.168,48.384
				l87.504,65.6l191.552,191.584c18.751,18.742,49.146,18.735,67.888-0.016S510.847,442.95,492.096,424.208z M34.096,164.176
				c1.995-17.002,6.301-33.651,12.8-49.488L84.8,152.736l22.624-22.688L63.44,86.064c6.457-8.553,14.071-16.167,22.624-22.624
				l43.984,43.984L152.736,84.8l-38.048-37.984c15.841-6.472,32.49-10.751,49.488-12.72l38.16,114.256l-53.984,53.984
				L34.096,164.176z M177.008,218.864l41.824-41.824l48.496,64.64l-25.744,25.744L177.008,218.864z M265.824,288.448l22.72-22.736
				l22.592,22.672l-22.688,22.752L265.824,288.448z"/>
			<rect x="385.21" y="339.934" transform="matrix(0.7071 0.7071 -0.7071 0.7071 369.1959 -179.448)" width="32" height="32"/>
		</g>
	</g>
</g>
<g>
</g>
<g>
</g>
<g>
</g>
<g>
</g>
<g>
</g>
<g>
</g>
<g>
</g>
<g>
</g>
<g>
</g>
<g>
</g>
<g>
</g>
<g>
</g>
<g>
</g>
<g>
</g>
<g>
</g>
</svg>
